<?xml version="1.0" encoding="utf-8"?>
<!-- Generator: Adobe Illustrator 26.0.3, SVG Export Plug-In . SVG Version: 6.00 Build 0)  -->
<svg version="1.1" id="Layer_1" xmlns="http://www.w3.org/2000/svg" xmlns:xlink="http://www.w3.org/1999/xlink" x="0px" y="0px"
	 viewBox="0 0 1999.1 727" style="enable-background:new 0 0 1999.1 727;" xml:space="preserve">
<style type="text/css">
	.st0{fill:url(#SVGID_1_);}
	.st1{fill:#F5F5F5;}
	.st2{opacity:0.5;fill:url(#SVGID_00000087392582409971766800000012808090811289082788_);enable-background:new    ;}
	.st3{fill:#FFFFFF;}
	.st4{fill:#A1887F;}
	.st5{opacity:0.2;fill:#FFFFFF;enable-background:new    ;}
	.st6{fill:url(#SVGID_00000122682450758269343900000012617750101027246976_);}
	.st7{fill:url(#SVGID_00000134240069464014371590000016189911869080553088_);}
	.st8{fill:#E0E0E0;}
	.st9{opacity:0.3;fill:#294ACE;enable-background:new    ;}
	.st10{fill:url(#SVGID_00000085228002260940953050000008080533367914320022_);}
	.st11{fill:#294ACE;}
	.st12{fill:#BDBDBD;}
	.st13{fill:#69F0AE;}
	.st14{opacity:0.5;fill:url(#SVGID_00000091718196462608993880000013156092493703102390_);enable-background:new    ;}
	.st15{opacity:0.3;fill:#FFFFFF;enable-background:new    ;}
	.st16{opacity:0.5;}
	.st17{fill:#47E6B1;}
	.st18{opacity:0.5;fill:#4D8AF0;enable-background:new    ;}
	.st19{opacity:0.5;fill:#F55F44;enable-background:new    ;}
	.st20{opacity:0.5;fill:#47E6B1;enable-background:new    ;}
	.st21{opacity:0.5;fill:url(#SVGID_00000039102579271513873340000011371683169094632093_);enable-background:new    ;}
	.st22{fill:#DBDBDB;}
	.st23{opacity:0.3;fill:#3AD29F;enable-background:new    ;}
	.st24{opacity:0.5;fill:url(#SVGID_00000031208196711742400850000016728150250716809861_);enable-background:new    ;}
	.st25{fill:#4D8AF0;}
	.st26{opacity:0.3;fill:#4D8AF0;enable-background:new    ;}
	.st27{opacity:0.5;fill:url(#SVGID_00000006687920557603501790000015332125716715820172_);enable-background:new    ;}
	.st28{fill:#FF5252;}
	.st29{opacity:0.5;fill:#FF5252;enable-background:new    ;}
	.st30{opacity:0.3;fill:#FF5252;enable-background:new    ;}
	.st31{opacity:0.5;fill:url(#SVGID_00000016782025821648715880000008770661864028818359_);enable-background:new    ;}
	.st32{opacity:0.5;fill:#69F0AE;enable-background:new    ;}
	.st33{opacity:0.3;fill:#69F0AE;enable-background:new    ;}
	.st34{opacity:0.5;fill:url(#SVGID_00000163758226284233002710000016993549754290001561_);enable-background:new    ;}
	.st35{opacity:0.5;fill:#294ACE;enable-background:new    ;}
	.st36{opacity:0.1;fill:#FFAC63;enable-background:new    ;}
	.st37{fill:#2F2E41;}
	.st38{fill:#3F3D56;}
	.st39{opacity:0.1;enable-background:new    ;}
	.st40{fill:#FBBEBE;}
	.st41{fill:#D0D2D5;}
	.st42{fill:#FFAC63;}
	.st43{opacity:0.1;}
	.st44{fill:#A0616A;}
	.st45{fill:#F2F2F2;}
	.st46{fill:#FFB6B6;}
	.st47{fill:#CCCCCC;}
	.st48{fill:#E6E6E6;}
	.st49{fill:none;stroke:#262B3A;stroke-miterlimit:10;}
	.st50{fill:none;stroke:#262B3A;stroke-miterlimit:10;stroke-dasharray:12.1523,12.1523;}
	.st51{fill:none;}
	.st52{fill:none;stroke:#262B3A;stroke-miterlimit:10;stroke-dasharray:11.9965,11.9965;}
	.st53{fill:none;stroke:#262B3A;stroke-miterlimit:10;stroke-dasharray:12;}
</style>
<g>
	<g>
		<path class="st36" d="M1982.3,285.9c0.1-83.1-66.5-151.6-149.5-153.8c-68.6-1.8-130.1,42.1-150.7,107.6
			c-21.2-3.4-42.9-2.4-63.7,2.9c-75.2,19.6-154.1,19.6-229.3,0c-20.8-5.4-42.5-6.4-63.7-2.9c-20.6-65.5-82.1-109.4-150.7-107.6
			c-83.1,2.1-149.7,70.7-149.5,153.8c0.1,55.6,30.2,106.9,78.7,134c-15.2,24.3-23.2,52.5-23.2,81.1c0,84.2,68.7,153.3,152.9,153.7
			c30.3,0.2,60.1-8.7,85.4-25.4c57.2,37.8,132.5,33.1,184.6-11.5c52.1,44.6,127.4,49.3,184.7,11.5c25.3,16.8,55,25.7,85.4,25.5
			c84.2-0.4,153-69.4,152.9-153.7c0-28.7-8-56.8-23.2-81.1C1952.2,392.8,1982.3,341.6,1982.3,285.9z"/>
		<path class="st37" d="M1399.3,345.7c0,0-45.5-3.2-56,0.3s-31.5,49.8-31.5,49.8l67.3,2.6l28.9-6.1L1399.3,345.7z"/>
		<polygon class="st38" points="1624,654.7 1626.6,544.3 1707.1,542.8 1707.1,654.7 		"/>
		<path class="st37" d="M1468.7,420.5c5.4,7.3,6.2,16.9,6.9,25.9c1.3,17.5,2.6,35,3.9,52.5c0.9,11.7,1.7,23.6-0.3,35.2
			c-0.1,0.9-0.4,1.8-0.9,2.6c-0.9,1.4-2.6,1.9-4.3,2.3c-16,3.8-32.8,0.1-48.8-3.6c-3-22.1,1.8-44.6,9.5-65.6
			c4.7-12.8,10.3-25.1,16.1-37.4c2.4-5,4.6-14.1,8.4-18.1C1463.5,409.8,1465.8,416.5,1468.7,420.5z"/>
		<path class="st39" d="M1468.7,420.5c5.4,7.3,6.2,16.9,6.9,25.9c1.3,17.5,2.6,35,3.9,52.5c0.9,11.7,1.7,23.6-0.3,35.2
			c-0.1,0.9-0.4,1.8-0.9,2.6c-0.9,1.4-2.6,1.9-4.3,2.3c-16,3.8-32.8,0.1-48.8-3.6c-3-22.1,1.8-44.6,9.5-65.6
			c4.7-12.8,10.3-25.1,16.1-37.4c2.4-5,4.6-14.1,8.4-18.1C1463.5,409.8,1465.8,416.5,1468.7,420.5z"/>
		<path class="st40" d="M1522.6,506.9c3.6-3.7,7.3-7.5,11.9-9.8c5.8-2.8,12.4-3,18.8-4.1c5-0.9,9.9-2.2,15-2.5
			c5.1-0.3,10.5,0.8,14.2,4.2c4.4,4,5.5,10.3,6.4,16.2c2.1,14.1,3.8,29.6-3.9,41.6c-5.2,8.1-14.1,13.5-23.6,15.4
			c-5.9,1.2-11.9,1.2-17.9,1.2l-56.1-0.1c-1,0-0.3-16.3-0.1-17.8c0.8-5,2.7-9.7,5.7-13.8C1501.4,526.6,1513,516.9,1522.6,506.9z"/>
		<path class="st39" d="M1522.6,506.9c3.6-3.7,7.3-7.5,11.9-9.8c5.8-2.8,12.4-3,18.8-4.1c5-0.9,9.9-2.2,15-2.5
			c5.1-0.3,10.5,0.8,14.2,4.2c4.4,4,5.5,10.3,6.4,16.2c2.1,14.1,3.8,29.6-3.9,41.6c-5.2,8.1-14.1,13.5-23.6,15.4
			c-5.9,1.2-11.9,1.2-17.9,1.2l-56.1-0.1c-1,0-0.3-16.3-0.1-17.8c0.8-5,2.7-9.7,5.7-13.8C1501.4,526.6,1513,516.9,1522.6,506.9z"/>
		<path class="st40" d="M1298.2,302.8l-10.9,14.3c-7.8,10.2-16.9,21.3-29.6,23.2c-0.8,2.7,1.8,5,4.2,6.6
			c33.1,21.7,71.6,35.6,111.2,37.4c5.1,0.2,11.4-0.5,13.3-5.2c1.7-4.3-1.5-8.9-4.9-12c-5.1-4.7-11.7-9.3-12.2-16.2
			c-0.3-4.7,2.3-8.9,3.8-13.3c2.1-6,2.1-12.5,2.1-18.9c0-2.3,0-4.7-0.9-6.8c-0.9-1.8-2-3.3-3.5-4.6c-11.9-11.7-27.9-17.5-43-23.7
			c-5.1-2.1-14.4-8.9-18.8-3.1c-2.1,2.7-2.1,7.9-3.6,11.1C1303.5,295.5,1301.1,299.3,1298.2,302.8z"/>
		<path class="st39" d="M1298.2,302.8l-10.9,14.3c-7.8,10.2-16.9,21.3-29.6,23.2c-0.8,2.7,1.8,5,4.2,6.6
			c33.1,21.7,71.6,35.6,111.2,37.4c5.1,0.2,11.4-0.5,13.3-5.2c1.7-4.3-1.5-8.9-4.9-12c-5.1-4.7-11.7-9.3-12.2-16.2
			c-0.3-4.7,2.3-8.9,3.8-13.3c2.1-6,2.1-12.5,2.1-18.9c0-2.3,0-4.7-0.9-6.8c-0.9-1.8-2-3.3-3.5-4.6c-11.9-11.7-27.9-17.5-43-23.7
			c-5.1-2.1-14.4-8.9-18.8-3.1c-2.1,2.7-2.1,7.9-3.6,11.1C1303.5,295.5,1301.1,299.3,1298.2,302.8z"/>
		<circle class="st40" cx="1368.2" cy="252.9" r="73.5"/>
		<path class="st37" d="M1348.9,371.4c-10.5,2.2-21.4-0.9-31.7-4.1c-14.8-4.5-30.8-9.9-39.4-22.7c-2-3-3.7-6.5-6.8-8.2
			c-6.8-3.8-14.6,2.4-20.3,7.7c-27.6,26.1-64.7,43-84.6,75.3c-11.3,18.5-15.9,40.3-17.1,62c-0.6,11-0.4,22.2,2.9,32.6
			c9.9,31.5,44.5,50,55.3,81.1c6.5,18.9,1.8,37.2-1,57.1l262.6,0.5c-5.2-37.4-7.3-75.1-6.3-112.8c0.2-8.1,0.6-16.3,2.6-24.2
			c1.6-6.4,4.4-12.7,4.4-19.2c0.2-12.1-8.3-23.4-6.5-35.4s13.5-21.9,11.3-33.6c-2.6-14-5.6-29-11.5-42c-3.1-6.8-6.5-13.5-11.7-18.8
			c-5.2-5.3-11.7-8.9-18.5-11.8c-16.1-6.9-33.4-10.4-50.9-10.2c-1.6-0.1-3.2,0.2-4.6,0.8c-4.3,2.1-4.3,8-5.6,12.6
			C1369.1,367,1357.7,374.3,1348.9,371.4z"/>
		
			<rect x="1451.7" y="469.3" transform="matrix(0.9065 -0.4223 0.4223 0.9065 -68.0371 658.6144)" class="st41" width="1.7" height="27.1"/>
		
			<rect x="1466.6" y="480.7" transform="matrix(0.9065 -0.4223 0.4223 0.9065 -83.2263 670.5007)" class="st42" width="10.5" height="84.8"/>
		<path class="st40" d="M1167,536.1c-3.2,22.5,7.1,44.4,12,66.6c3.7,16.4,4.4,33.4,4.4,50.2c0.5-0.2,0.4,0.2,0.9,0h179.5
			c28.7-25.6,58.3-51.7,96.1-59.1c5.4-1.1,10.9-1.7,16.2-3.5c20-6.7,31.2-27.4,39.9-46.6c3.1-6.8,6.1-15,2.3-21.4
			c-1.4-2.1-3.1-3.9-5.2-5.4c-11.9-8.7-27.3-11.1-41.3-6.3c-25.2,8.8-37.6,37.7-60.2,51.8c-10.5,6.5-22.7,9.6-34,14.6
			c-16.8,7.5-31.5,19.4-48.4,26.6c-23,9.7-48.8,10.3-72.6,17.8c8.6-9.9,11.6-23.8,10-36.9s-7.2-25.2-14.2-36.3
			c-6.2-10-14.2-19.8-25.4-23.4C1207.4,518.5,1187.4,532.5,1167,536.1z"/>
		<path class="st37" d="M1299.6,286.6c7.5-5.8,8.9-10.7,10.8-20c1.2-5.8,1.3-12.4,5.5-16.6c8.6-8.4,25.3,1,34.4-6.9
			c5.7-4.9,5.4-14.2,10.7-19.5c3.9-3.9,9.9-4.7,15.4-5c8.3-0.4,16.7,0.1,24.9,1.3c5.9,0.9,11.7,2.1,17.7,2.1
			c11.9-0.1,23-5.4,33.8-10.5c-1.7-0.1-3.3-1.1-4-2.7c4.1-2.2,8.4-4.1,12.8-5.7c-1.2-3.6-8.9-0.7-9.3-4.4c0-1,0.4-1.9,1-2.6
			l7.6-10.8c-7.2,1.8-14.4-3.1-18.9-9c-4.5-5.9-7.6-12.9-12.9-18.1c-10.6-10.3-27.2-10.6-42-10.3l-27.4,0.7
			c-12.7,0.3-25.6,0.7-37.9,3.9c-5.6,1.5-11.1,3.5-15.8,6.9c-5.9,4.2-10.3,10.3-15.9,15c-7.5,6.2-17.3,10-22.8,17.9
			c-3.5,5.1-4.9,11.3-4,17.3c1.1,6.8,5.1,12.8,6.7,19.5c2.7,11.5-1.7,23.7,0.9,35.3c1.9,8.6,7.6,15.9,13.1,22.8
			c1.3,1.6,2.8,3.3,4.8,3.4c1.2-0.1,2.5-0.4,3.6-1"/>
		<polygon class="st38" points="1858.8,573.8 1858.8,592.2 1820.3,640.3 1415.5,628.9 1415.5,608.8 1523.9,569.3 		"/>
		<polygon class="st39" points="1858.8,573.8 1858.8,592.2 1820.3,640.3 1415.5,628.9 1415.5,610.5 1817.7,620.2 		"/>
		<polygon class="st41" points="1858.8,558.1 1858.8,573.8 1817.7,620.2 1520.4,613 1520.4,593.9 1617.5,558.1 		"/>
		<polygon class="st39" points="1858.8,558.1 1858.8,573.8 1817.7,620.2 1520.4,613 1520.4,593.9 1817.7,601.8 		"/>
		<polygon class="st38" points="1623.6,573.8 1626.2,380.6 1706.6,377.9 1706.6,573.8 		"/>
		<path class="st42" d="M1327.2,499l9.7,6.1l-5.9-10.7c1.7-1.3,3.7-2.1,5.8-2.1h0.2c0.7,0,1.3,0,2-0.1l3.3,2.1l-1.4-2.6
			c2.3-0.8,4.3-2.3,5.7-4.4l5.9,3.7l-3.7-6.7c3.4-4.1,8-6.6,13.1-6.6c6.1,0,11.5,3.6,15,9.3c2.1,3.4,5.9,5.5,9.9,5.4h0.3
			c6.7,0,12.2,7.6,12.2,17s-5.5,17-12.2,17c-1.5,0-2.9-0.4-4.2-1.1c-4.6-2.3-10-2.4-14.8-0.3c-4,1.8-8.5,1.8-12.5,0
			c-4.7-2-10-1.9-14.6,0.3c-1.3,0.7-2.7,1-4.2,1c-6.7,0-12.2-7.6-12.2-17C1324.6,505.7,1325.5,502.2,1327.2,499z"/>
		<path class="st39" d="M1345.3,523.9c3.5-0.7,7.2-0.3,10.4,1.1c4,1.8,8.5,1.8,12.5,0c4.7-2.1,10.1-2,14.7,0.3
			c1.3,0.7,2.8,1.1,4.2,1.1c6,0,10.9-6,12-14c-1.2-0.9-2.2-2-3-3.2c-3.5-5.6-8.9-9.3-15-9.3c-6.1,0-11.5,3.6-15,9.2
			c-2.1,3.4-5.9,5.5-9.9,5.5h-0.2C1351.5,514.5,1347.3,518.3,1345.3,523.9z"/>
		<path class="st39" d="M1161.5,446c-2.9,11.7-5.8,23.4-7.3,35.4c-2,16.2-1.3,32.5,2.1,48.5c1,4.7,2.2,9.4,2.2,14.1s-1.5,9.8-5,13
			c22.3-14.6,52.3-16.5,76.2-4.8c11.7,5.7,23.3,14.7,36.1,12.6c1.2-7.2-5.8-14-4.2-21.1c1.2-5.2,6.6-8.5,8.1-13.6
			c1.9-6.5-3.1-12.8-5.3-19.2c-1-3.2-1.6-6.5-2-9.8c-1.9-13.6-4.4-27.2-9.5-40c-5.1-12.7-13-24.6-24.1-32.7
			c-6.7-4.9-14.4-8.2-22.2-10.9c-6.2-2.1-15.1-6.4-21.8-5.2C1170.5,414.7,1164.4,434.2,1161.5,446z"/>
		<path class="st37" d="M1158.9,443.4c-2.9,11.7-5.8,23.4-7.3,35.4c-2,16.2-1.3,32.5,2.1,48.5c1,4.7,2.2,9.4,2.2,14.1
			c0,4.8-1.5,9.8-5,13c22.3-14.6,52.3-16.5,76.2-4.8c11.7,5.7,23.3,14.7,36.1,12.6c1.2-7.2-5.8-14-4.2-21.1
			c1.2-5.2,6.6-8.5,8.1-13.6c1.9-6.5-3.1-12.8-5.3-19.2c-1-3.2-1.6-6.5-2-9.8c-1.9-13.6-4.4-27.2-9.5-40s-13-24.6-24.1-32.7
			c-6.7-4.9-14.4-8.2-22.2-10.9c-6.2-2.1-15.1-6.4-21.8-5.2C1167.9,412.1,1161.8,431.6,1158.9,443.4z"/>
		<path class="st41" d="M1843,422.4c-3.1,17.4-15.7,31.3-27.8,44.1c-15.4,16.4-29.9,32.7-45.3,49.1h-197.7c-1.9,0-4.4-0.4-6.3,0.2
			l-3,0.9c-14.7-10.8-26-25.4-37.2-39.8l-20.2-26.1c-10.3-13.3-21.2-28.7-18.7-45.3c0.2-1.8,0.8-3.5,1.9-4.9c1-1.1,2.3-1.9,3.6-2.5
			c28-14.2,59.5-19.7,89.6-28.5c4.7-1.4,9.6-3,12.8-6.7c4.3-4.9,4.4-12,5.7-18.4c1.3-6.3,4.2-12.6,5.7-19c1.8-7.5,2-15.2,2.1-22.9
			c0.1-8.3,0.3-16.5,0.4-24.8c0.1-8.3,0.3-16.5,0.4-24.6c32.4-0.6,64.3-3.1,96.5-0.6c3.3,0.3,6.9,0.7,9.3,2.9
			c1.8,1.7,2.6,4.3,3.3,6.8c2.6,9.8,3.7,19.8,4.5,29.9c1.1,14.6,1.3,29.4,3.8,43.8c1.3,8,3.5,16.1,8.6,22.4
			c7.1,8.7,18.6,12.3,29.3,15.7c22.2,7.1,44.1,15.1,65.6,24.1c3.2,1.4,6.5,2.8,9,5.2C1843.6,408.3,1844.1,415.8,1843,422.4z"/>
		<path class="st39" d="M1722.5,292.1c-6.5,7.1-19.4,11.3-26.8,15.3c-7.3,4-14.9,8.1-23.1,8.9c-9.7,1-19.3-2.6-28.4-6.1
			c-4.9-1.9-9.8-3.8-14.3-6.6c-9.6-6.1-15.8-15.6-21.4-25.8c0.1-8.2,0.3-16.4,0.4-24.6c32.4-0.6,64.3-3.1,96.5-0.6
			c3.3,0.3,6.9,0.7,9.3,2.9c1.8,1.7,2.6,4.3,3.3,6.8C1720.7,272,1721.8,282,1722.5,292.1z"/>
		<path class="st41" d="M1737.1,248.9c2.3-1.7,5.1-2.9,7.3-4.8c2.3-2.1,4.2-4.6,5.6-7.3c4-7.2,6.9-15.2,6.3-23.4
			c-0.6-8.2-5.5-16.4-13.3-19c4.9-15,0.9-31.3-3.2-46.6c-1.3-4.9-2.6-9.9-5-14.4c-4.7-9.1-13.2-15.5-21.9-20.9
			c-10-6.2-20.7-11.5-32.4-13.2c-12-1.7-24.4,0.4-35.8,4.5c-6.1,2.2-12.2,5.1-16.8,9.8c-3.3,3.4-5.7,7.7-8.6,11.4
			c-4.8,6.1-11.1,11-15,17.7c-4.4,7.4-5.4,16.2-6.3,24.7l-3.1,28.3c-2.1-2.9-6.5-3.1-9.6-1.3s-4.9,5.1-6,8.5
			c-3.3,9.9-2,20.7,3.5,29.5c2.4,3.8,5.6,7.1,8.3,10.6c14.1,18,19.5,43.4,38.8,55.7c4.4,2.8,9.4,4.7,14.3,6.6
			c9.1,3.5,18.7,7.1,28.4,6.1c8.3-0.9,15.8-4.9,23.1-8.9c8.9-4.9,26.2-10.1,30-20.4C1730,270.8,1725.9,257.3,1737.1,248.9z"/>
		<path class="st39" d="M1645.1,256.3c2.5-1.9,4.9-3.9,7.7-5.2c3.9-1.8,8.3-2,12.4-0.5c0.8,0.4,1.6,0.6,2.5,0.6
			c1.1-0.2,2.2-0.6,3.2-1.1c3.9-1.7,8.4-0.5,12.2,1.2c5.1,2.4,10,5.2,14.7,8.4c-1.9,0.6-3.7,1.3-5.4,2.2c-2,1-3.9,2.3-5.9,3.3
			c-5.1,2.5-10.5,4-16.2,4.4c-1.5,0.2-3,0.2-4.5,0.2c-6.2-0.1-12.1-2.4-17.9-4.6l-5.1-1.9l-2.5-1c-0.5-0.2-2.2-0.5-2.4-1
			c-0.6-0.9,2.2-1.9,2.9-2.4C1642.3,258.3,1643.7,257.3,1645.1,256.3z"/>
		<path class="st39" d="M1695.3,187c0.7-0.3,1.4-0.6,2.1-0.8c8.4-2.6,17.5,0.8,21.9,8.4c-0.6,0.1-1.2-0.4-1.7-0.8
			c-1.4-1-2.9-1.8-4.5-2.4c-1.1-0.5-2.1-1.1-3.2-1.5c-3.8-1.5-8-1.7-12-0.7c-3.8,0.9-7,2.8-10.5,4.5c0-1.3,2.4-3,3.3-3.8
			C1692.2,188.6,1693.7,187.7,1695.3,187z"/>
		<path class="st39" d="M1704.9,199.8c3.8,0.1,7.9-0.3,10.8-2.6c-1.8-0.2-3.6,0.5-5.3,0.9c-3.2,0.8-6.6,0.8-9.8,0.1
			c-1.6-0.4-3.2-0.9-4.8-1.2c-1.3-0.3-2.7-0.2-4,0.2c0.4,1.2,4.9,1.7,6.1,1.9C1700.2,199.5,1702.6,199.8,1704.9,199.8z"/>
		<path class="st39" d="M1639.2,187c-0.7-0.3-1.4-0.6-2.1-0.8c-8.4-2.6-17.5,0.8-21.9,8.4c0.6,0.1,1.2-0.4,1.7-0.8
			c1.4-1,2.9-1.8,4.5-2.4c1.1-0.5,2.1-1.1,3.2-1.5c3.8-1.5,8-1.7,12-0.7c3.8,0.9,7,2.8,10.4,4.5c0-1.3-2.4-3-3.3-3.8
			C1642.4,188.6,1640.9,187.7,1639.2,187z"/>
		<path class="st39" d="M1629.6,199.8c-3.8,0.1-7.9-0.3-10.8-2.6c1.8-0.2,3.6,0.5,5.3,0.9c3.2,0.8,6.6,0.8,9.8,0.1
			c1.6-0.4,3.2-0.9,4.8-1.2c1.3-0.3,2.7-0.2,4.1,0.2c-0.4,1.2-4.9,1.7-6.1,1.9C1634.3,199.5,1632,199.8,1629.6,199.8z"/>
		<ellipse class="st39" cx="1655.3" cy="232.7" rx="5.6" ry="2.2"/>
		<ellipse class="st39" cx="1679.8" cy="232.7" rx="5.6" ry="2.2"/>
		<path class="st39" d="M1549.5,395.8c7.1-2.5,14.5-3.7,22-3.6c7.3,0.1,14.6,1.5,21.9,2.2c11.5,1.2,23.1,0.9,34.6,0.7"/>
		<path class="st39" d="M1769.5,395.8c-7.1-2.5-14.5-3.7-22-3.6c-7.3,0.1-14.6,1.5-21.9,2.2c-11.5,1.2-23.1,0.9-34.6,0.7"/>
		<path class="st39" d="M1642.5,436.1c2.9,7.9,12.6,11.1,16.8,18.4c1.3,2.5,2.3,5.2,2.9,8.1l2.3,8.7c-0.9-4.3-1.7-8.7-1.5-13.1
			c0.2-4.4,1.8-8.9,5.1-11.8c1.8-1.4,3.8-2.6,6-3.5l13.4-6.4"/>
		<g class="st43">
			<path d="M1299.3,252.6c-4.2,4.2-4.4,10.8-5.5,16.6c-1.7,8.6-3.1,13.5-9.3,18.7c1.1,1.3,2.5,2.5,4.1,2.6c1.2-0.1,2.5-0.4,3.6-1
				l7.4-3c7.5-5.8,8.9-10.7,10.8-20c1.2-5.8,1.3-12.4,5.5-16.6c0.4-0.4,0.8-0.7,1.2-1C1310.5,248.7,1303.8,248.2,1299.3,252.6z"/>
			<path d="M1448.7,208.8c4.1-2.2,8.4-4.1,12.8-5.7c-1.2-3.6-8.9-0.7-9.3-4.4c0-1,0.4-1.9,1-2.6l7.6-10.8c-7.2,1.8-14.4-3.1-18.9-9
				c-4.5-5.9-7.6-12.9-12.9-18.1c-10.6-10.3-27.2-10.6-42-10.3l-27.4,0.7c-12.3,0.3-24.7,0.6-36.7,3.6c6.7-0.6,13.4-0.8,20.1-0.9
				l27.4-0.7c14.8-0.4,31.4-0.1,42,10.3c5.3,5.2,8.3,12.2,12.9,18.1c4.5,5.8,11.8,10.8,18.9,9l-7.6,10.8c-0.6,0.7-1,1.7-1,2.6
				c0.4,3.7,8.1,0.9,9.3,4.4c-4.4,1.6-8.7,3.5-12.8,5.7c0.8,1.6,2.3,2.6,4,2.7c-6,3.1-12.2,5.7-18.5,7.9h1.4
				c11.9-0.1,23-5.4,33.8-10.5C1451,211.3,1449.5,210.3,1448.7,208.8z"/>
			<path d="M1359.8,221.2c-5.5,0.2-11.5,1-15.4,5c-5.3,5.3-5,14.6-10.7,19.5c-0.2,0.2-0.5,0.4-0.8,0.6c6.4,0.3,12.8,0.7,17.4-3.2
				c5.7-4.9,5.4-14.2,10.7-19.5c1-1,2.1-1.8,3.4-2.4C1362.8,221.1,1361.3,221.2,1359.8,221.2z"/>
		</g>
	</g>
	<g>
		<g>
			<polygon class="st44" points="255.6,566.1 236.6,565 239.2,623.4 252.1,624.1 			"/>
			<path class="st37" d="M237.5,604.9l6.6,3v4c0,0,1.6-4.6,10.1-5.7l1,3.9c0,0,3.3,3.8,2.8,10.7l-2.1,18.5l-6.5-0.1l-1.1-12.8
				c0,0-1.8-2.9-9.9,11c0,0-3,4.6-17-0.1c-1.9-0.6-3.3-2.4-3.2-4.5c0-1.1,0.4-2.2,1.8-2.5c3.6-1,7,0.2,9.3-2.6
				S237.5,604.9,237.5,604.9L237.5,604.9L237.5,604.9z"/>
		</g>
		<g>
			<polygon class="st44" points="208,619.6 188.9,618.6 191.5,677 204.4,677.7 			"/>
			<path class="st37" d="M189.9,658.5l6.6,3v4c0,0,1.6-4.6,10.1-5.7l1,3.9c0,0,3.3,3.8,2.8,10.7l-2.1,18.5l-6.5-0.1l-1.1-12.8
				c0,0-1.8-2.9-9.9,11c0,0-3,4.6-17-0.1c-1.9-0.6-3.3-2.4-3.2-4.5c0-1.1,0.4-2.2,1.8-2.5c3.6-1,7,0.2,9.3-2.6
				S189.9,658.5,189.9,658.5L189.9,658.5L189.9,658.5z"/>
		</g>
		<g>
			<path class="st45" d="M446.8,445.2c-0.8-1.4-4.5,0.1-5.2-1.2c-0.7-1.3,2.7-3.2,4.7-7.7c0.3-0.8,2.6-5.9,0.9-7.5
				c-3.1-3-17.2,9.3-22.2,5.3c-1.1-0.9-1.8-2.6-5.1-5.5c-1.3-1.1-2.1-1.7-2.9-1.5c-1.1,0.3-1.2,1.7-2.3,4.6c-1.7,4.3-2.8,4-3.8,7.4
				c-0.8,2.5-0.6,4-1.5,4.3c-1.3,0.4-2.4-2.3-4-2c-1.6,0.2-2.6,3.4-2.9,5.7c-0.6,4.4,1,7.3,1.9,10.4c1,3.3,1.6,8.4-0.7,15.5
				l-22.3,62.8c4.9-12.9,19.2-48.2,25.1-61.3c1.7-3.8,3.6-7.6,7.6-9.1c3.8-1.5,8.9-0.6,15.6-2.2c0.8-0.2,2.9-0.7,3.2-2
				c0.2-1-1-1.6-0.8-2.6c0.3-1.3,2.7-1.3,5.8-2.8c2.1-1.1,3.5-2.3,4.6-3.4C442.7,452,447.9,447,446.8,445.2L446.8,445.2z"/>
			<path class="st45" d="M359.1,478.2c-0.9,0-1.2,2.2-2.1,2.2c-0.8,0-0.8-2.3-2.4-4.5c-0.3-0.4-2.2-3-3.4-2.6
				c-2.4,0.7-0.4,11.1-3.8,12.4c-0.7,0.3-1.8,0.1-4.2,0.9c-0.9,0.3-1.4,0.6-1.5,1c-0.2,0.6,0.5,1.1,1.6,2.5c1.6,2.1,1.2,2.5,2.6,4
				c1,1.1,1.8,1.4,1.7,2c-0.2,0.7-1.8,0.5-2.2,1.4c-0.3,0.9,0.9,2.3,2,3.1c2,1.6,3.9,1.6,5.6,2c1.9,0.5,4.6,1.7,7.4,4.8l24.4,29
				c-4.9-6.1-18.1-23.3-22.8-30c-1.4-1.9-2.7-4-2.3-6.3c0.4-2.3,2.3-4.6,3.4-8.3c0.1-0.4,0.5-1.6-0.1-2.1c-0.4-0.4-1.1,0-1.5-0.3
				c-0.6-0.5,0.1-1.7,0.3-3.7c0.1-1.4-0.1-2.4-0.3-3.3C361.3,482.1,360.4,478.2,359.1,478.2L359.1,478.2z"/>
			<path class="st45" d="M377.9,482.4l-0.6-5.1l0.3-0.4c1.2-1.8,1.8-3.5,1.8-5.2c0-0.3,0-0.5,0-0.8c0-1.1-0.1-2.4,0.6-3.9
				c0.4-0.9,1.5-2.8,3.1-2.6c0.4,0.1,0.8,0.3,1,0.5c0-0.1,0.1-0.1,0.1-0.2c0.5-0.8,0.9-1.1,1.3-1.4c0.3-0.2,0.6-0.5,1.1-1.1
				c0.2-0.3,0.4-0.5,0.5-0.7c0.4-0.6,1-1.3,1.9-1.3c1,0,1.6,0.9,1.9,1.5c0.6,1,0.9,1.7,1.1,2.2c0.1,0.2,0.1,0.4,0.2,0.4
				c0.3,0.5,3,0,4.1-0.1c2.3-0.4,4.3-0.7,5.1,0.7c0.6,1,0.2,2.4-1.3,4.2c-0.5,0.6-1,1-1.4,1.3c0.4,0.2,0.7,0.5,0.8,1.1l0,0
				c0.3,1.2-0.7,2.5-3.1,3.7c-0.6,0.3-1.4,0.7-2.5,0.9c-0.5,0.1-1,0.1-1.4,0.1c0,0.2-0.1,0.5-0.2,0.8c-0.4,0.8-1.3,1.1-2.6,1
				c-1.4-0.1-2.6-0.4-3.7-0.6c-0.9-0.2-1.7-0.4-2.3-0.3c-1.2,0.1-2,1-3.1,2.2L377.9,482.4L377.9,482.4z"/>
			<path class="st45" d="M380.5,452.2l-4.8,1.8l-0.4-0.2c-2-0.7-3.9-0.9-5.5-0.5c-0.3,0.1-0.5,0.1-0.8,0.2c-1,0.3-2.3,0.7-3.9,0.4
				c-0.9-0.2-3.1-0.7-3.3-2.3c-0.1-0.4,0.1-0.8,0.2-1.1c-0.1,0-0.1,0-0.2-0.1c-0.9-0.3-1.3-0.6-1.7-0.9c-0.3-0.2-0.6-0.5-1.3-0.8
				c-0.3-0.1-0.6-0.2-0.8-0.3c-0.7-0.3-1.5-0.6-1.7-1.5c-0.2-1,0.5-1.8,0.9-2.2c0.8-0.9,1.4-1.3,1.9-1.6c0.2-0.1,0.3-0.2,0.4-0.3
				c0.4-0.4-0.7-2.9-1.2-3.9c-0.9-2.1-1.8-4-0.6-5.1c0.9-0.8,2.3-0.8,4.4,0.2c0.6,0.3,1.2,0.7,1.6,1c0.1-0.4,0.4-0.8,0.8-1.1l0,0
				c1.1-0.6,2.6,0.1,4.3,2.1c0.4,0.5,1,1.2,1.5,2.2c0.2,0.5,0.4,0.9,0.5,1.3c0.2-0.1,0.5-0.1,0.8,0c0.9,0.2,1.4,1,1.7,2.3
				c0.3,1.4,0.3,2.6,0.4,3.7c0,0.9,0.1,1.8,0.3,2.3c0.4,1.1,1.5,1.7,2.9,2.4L380.5,452.2L380.5,452.2z"/>
			<path class="st45" d="M377.9,437.3l-0.6-5.1l0.3-0.4c1.2-1.8,1.8-3.5,1.8-5.2c0-0.3,0-0.5,0-0.8c0-1.1-0.1-2.4,0.6-3.9
				c0.4-0.9,1.5-2.8,3.1-2.6c0.4,0.1,0.8,0.3,1,0.5c0-0.1,0.1-0.1,0.1-0.2c0.5-0.8,0.9-1.1,1.3-1.4c0.3-0.2,0.6-0.5,1.1-1.1
				c0.2-0.3,0.4-0.5,0.5-0.7c0.4-0.6,1-1.3,1.9-1.3c1,0,1.6,0.9,1.9,1.5c0.6,1,0.9,1.7,1.1,2.2c0.1,0.2,0.1,0.4,0.2,0.4
				c0.3,0.5,3,0,4.1-0.1c2.3-0.4,4.3-0.7,5.1,0.7c0.6,1,0.2,2.4-1.3,4.2c-0.5,0.6-1,1-1.4,1.3c0.4,0.2,0.7,0.5,0.8,1.1l0,0
				c0.3,1.2-0.7,2.5-3.1,3.7c-0.6,0.3-1.4,0.7-2.5,0.9c-0.5,0.1-1,0.1-1.4,0.1c0,0.2-0.1,0.5-0.2,0.8c-0.4,0.8-1.3,1.1-2.6,1
				c-1.4-0.1-2.6-0.4-3.7-0.6c-0.9-0.2-1.7-0.4-2.3-0.3c-1.2,0.1-2,1-3.1,2.2L377.9,437.3L377.9,437.3z"/>
			<path class="st45" d="M383.1,535.7L382,535l-0.3-1.2l0.3,1.2l-1.2,0.1c0-0.1-0.1-0.4-0.2-0.8c-0.6-2.3-2.2-9.2-3.7-20
				c-1-7.6-1.5-15.4-1.7-23.2c-0.1-7.8,0.3-13.7,0.6-18.5c0.2-3.6,0.5-7,0.8-10.3c0.7-8.9,1.4-17.3,0.9-26.5
				c-0.1-2.1-0.3-6.4-2.9-11c-1.5-2.7-3.5-5-6-7l1.6-2c2.8,2.2,5,4.8,6.6,7.8c2.8,5.1,3,9.8,3.2,12.1c0.5,9.4-0.2,17.9-0.9,26.9
				c-0.3,3.3-0.5,6.7-0.8,10.3c-0.3,4.7-0.7,10.6-0.5,18.3c0.1,7.7,0.7,15.4,1.6,22.9c1.4,10.7,3.1,17.5,3.6,19.7
				C383.3,535,383.4,535.2,383.1,535.7L383.1,535.7z"/>
			<path class="st45" d="M364,421.8c-0.1,0-0.2,0-0.3,0c-2.1-0.1-4.1-1.4-5.9-3.8c-0.8-1.1-1.3-2.4-2.1-5c-0.1-0.4-0.8-2.4-1.2-5.2
				c-0.3-1.8-0.2-2.6,0.1-3.2c0.4-0.7,1-1.3,1.8-1.6c0-0.2,0-0.5,0.1-0.7c0.4-1,1.6-0.9,2.2-0.8c0.3,0,0.7,0.1,1.1,0.1
				c0.7,0,1-0.2,1.5-0.5c0.5-0.3,1.2-0.6,2.1-0.8c1.9-0.4,3.4,0.1,3.9,0.3c2.7,0.9,4,3,5.6,5.4c0.3,0.5,1.4,2.3,2.1,4.7
				c0.5,1.8,0.4,2.5,0.3,3.1c-0.3,1.2-1,1.9-2.9,3.4c-1.9,1.6-2.9,2.4-3.7,2.9C366.9,421.1,365.7,421.8,364,421.8L364,421.8z"/>
		</g>
		<g>
			<polygon class="st46" points="98.3,529.8 110.2,529.8 115.8,484 98.3,484 			"/>
			<path class="st37" d="M138.9,529.5L138.9,529.5c0.4,0.6,0.6,2.6,0.6,3.4l0,0c0,2.2-1.8,4-4,4H98.8c-1.5,0-2.7-1.2-2.7-2.7v-1.5
				c0,0-1.8-4.6,1.9-10.3c0,0,4.6,4.4,11.6-2.5l2-3.7l14.8,10.8l8.2,1C136.4,528.2,138,527.9,138.9,529.5L138.9,529.5z"/>
		</g>
		<g>
			<polygon class="st46" points="53.3,529.8 65.2,529.8 70.8,484 53.3,484 			"/>
			<path class="st37" d="M93.9,529.5L93.9,529.5c0.4,0.6,0.6,2.6,0.6,3.4l0,0c0,2.2-1.8,4-4,4H53.8c-1.5,0-2.7-1.2-2.7-2.7v-1.5
				c0,0-1.8-4.6,1.9-10.3c0,0,4.6,4.4,11.6-2.5l2-3.7L81.4,527l8.2,1C91.4,528.2,93,527.9,93.9,529.5L93.9,529.5z"/>
		</g>
		<polygon class="st37" points="44.6,284 29.6,318 48.6,504 72.1,505.5 81.6,341 90.6,506 118.6,503 125.2,293.6 		"/>
		<path class="st47" d="M103.7,148.5L73.6,143l-6.1,6.1L36.6,162l5,97c0,0-10,6.7-5,15.8s4,20.2,4,20.2h84.6l-3.6-55l10-70
			L108.2,159L103.7,148.5C103.7,148.5,103.7,148.5,103.7,148.5z"/>
		<path id="b-399_00000097473094647785105320000010680656251050109375_" class="st46" d="M81.9,261.6c8.6,2,16.5-0.7,17.8-6.2
			c1.3-5.4-4.6-11.5-13.1-13.5c-3.4-0.9-7-0.9-10.4-0.1l-36.3-8.2l-3.5,17.1l36.2,6.3C75.2,259.2,78.4,260.8,81.9,261.6L81.9,261.6z
			"/>
		<path class="st47" d="M42.6,167l-6-5c0,0-12,6-14,11s-14,53-14,53s-2.4,26.3,3.8,29.7s45.2,1.3,45.2,1.3l3-20l-16-6L42.6,167z"/>
		<circle class="st46" cx="90.5" cy="113.8" r="26.4"/>
		<path class="st37" d="M71.6,137.2c-3.2,0.3-8.3-7.8-8.1-15.7c0.1-5-4.2-6-4.6-12.5c-0.2-3.8,5.6-5,6-8c0.7-5.5,4.3-9.2,4.7-9.7
			c3.8-3.9,6.5-2.6,11-7.1c2.7-2.7,2-3.5,3.8-4.7c5.3-3.5,14.7,0.3,20.4,5.4c2,1.8,9.3-0.2,12.5,4.8c3.8,5.8,2.9,17.8,1.3,19.3
			c-1,1-3.2-1.4-9.3-2.9c-5.6-1.4-0.3,5.5-6.8,4.3c-7.7-1.4-9.2-3.7-12.1-2.3c-3,1.5-5.4,6.1-4.7,9.7c0.3,1.8,1.3,2.8,0.8,3.7
			c-1,1.7-2.2,0-3.5,1.7c-1.5,1.9,2.3,6.9,1.5,7.4c-0.1,0.1-0.6,0.1-4.7-3.8c-1.6-1.6-2.1-2.5-2.4-2.4c-0.5,0.2-3.9,3.4-2.6,5.9
			c2,3.9-0.6,4,0,6.6C75.5,139.6,73.6,137.1,71.6,137.2L71.6,137.2L71.6,137.2z"/>
		<polygon class="st38" points="66.1,217.5 62.1,220.5 83.1,249.5 87.1,248.5 		"/>
		<g>
			<path class="st3" d="M120.1,244.1v50.6c0,4.5-3.6,8.1-8.1,8.1H61.3c-4.5,0-8.1-3.6-8.1-8.1v-50.6c0-4.5,3.6-8.1,8.1-8.1H112
				C116.4,236,120.1,239.6,120.1,244.1z"/>
			<g>
				<path class="st38" d="M93.4,256.6H77.1c-0.4,0-0.7-0.3-0.7-0.7s0.3-0.7,0.7-0.7h16.3c0.4,0,0.7,0.3,0.7,0.7
					C94.1,256.3,93.8,256.6,93.4,256.6z"/>
				<path class="st38" d="M93.4,272.6H77.1c-0.4,0-0.7-0.3-0.7-0.7c0-0.4,0.3-0.7,0.7-0.7h16.3c0.4,0,0.7,0.3,0.7,0.7
					S93.8,272.6,93.4,272.6z"/>
				<path class="st38" d="M85.3,294.5H68.9c-0.4,0-0.7-0.3-0.7-0.7c0-0.4,0.3-0.7,0.7-0.7h16.3c0.4,0,0.7,0.3,0.7,0.7
					S85.7,294.5,85.3,294.5z"/>
				<path class="st38" d="M102.2,264.6H68.3c-0.4,0-0.7-0.3-0.7-0.7c0-0.4,0.3-0.7,0.7-0.7h33.9c0.4,0,0.7,0.3,0.7,0.7
					S102.6,264.6,102.2,264.6z"/>
			</g>
		</g>
		<path id="c-400_00000067926604946061761630000018048606443537056907_" class="st46" d="M99.7,265.7c-7.8,4.1-12,11.4-9.4,16.3
			c2.6,5,11,5.7,18.8,1.6c3.1-1.6,5.8-3.9,7.9-6.7l32.8-17.7l-8.6-15.2l-31.4,19C106.2,263.1,102.8,264,99.7,265.7z"/>
		<path class="st47" d="M125.6,171c0,0,9-6,15,10c4.7,12.6,13.5,49.8,17,65c0.9,4-0.4,8.2-3.5,11l-4,3.6L130.6,275l-13.3-19.3
			l16.1-9.7L115,206L125.6,171C125.6,171,125.6,171,125.6,171z"/>
		<path class="st48" d="M535.3,536.5L535.3,536.5c0,0.5-0.4,0.8-0.8,0.8H-47.7v-1.7h582.2C535,535.7,535.3,536.1,535.3,536.5z"/>
		<path id="d-401_00000029729854606960663470000013937684930325658796_" class="st44" d="M219.9,532c0.2-2.1-0.1-4.2-0.9-6.2
			l3.3-21.9l-10.5-1.3l-2.2,22.4c-1.1,1.8-1.8,3.9-1.9,6c-0.5,5.3,1.9,9.8,5.3,10.1C216.3,541.3,219.4,537.3,219.9,532L219.9,532
			L219.9,532z"/>
		<path class="st42" d="M250.2,402.5l-8.6,45.4l-10.7,23.8l-6.4,45.9l-16.4,5l5.1-58.2c0,0,16.6-54.1,21-59.6
			S250.2,402.5,250.2,402.5L250.2,402.5L250.2,402.5z"/>
		<g>
			
				<rect x="253.5" y="362.9" transform="matrix(0.2931 -0.9561 0.9561 0.2931 -173.1462 529.0776)" class="st37" width="35.5" height="37.5"/>
			<circle class="st44" cx="276.8" cy="364.6" r="18.3"/>
			<path class="st37" d="M293.8,338.9c-5.6-2.7-16.3-1.4-20.1-1c-3.4,0.4-5.8,2.3-8.1,4.3c-5.3,4.4-7.6,9.8-8.3,11.6
				c-3.5,8.9-0.1,12.7-3.7,16.4c-3.9,4-9.3,1.3-11.7,5.2c-2.2,3.5,1.8,6.6,0.3,12.2c-1.8,6.5-8.6,7.9-7.9,10.4
				c0.8,2.8,10,3.9,17.4,0.6c1-0.4,9.7-4.5,10.1-11.1c0.3-4.2-3.2-4.7-4.1-10.7c-0.7-4.2,0.4-7.8,2.1-13.5c1.2-4,1.8-6,3.1-7.8
				c0.6-0.9,6.5-9,15.1-7.5c7.6,1.3,12.8,9.4,11.8,14.4c-0.6,3-3.4,5.2-2.3,7.4c0.8,1.6,2.9,1.5,3.1,3c0.2,1.4-1.3,2.8-2.6,3.9
				c-1.5,1.4-2.9,2-3.4,2.3c-3.7,2-5,8.2-5,12c0,5.7,3.2,12.7,9.6,15.1c7.2,2.7,15.9-1.3,16.2-4.5c0.2-1.9-2.6-2.5-3-5.6
				c-0.5-3.6,2.7-5.4,1.7-7.6c-0.9-2,0.4,0.9-2.1-2c-0.3-0.3-1.9-2.3-2-4.7c0-3.1,2.6-5.2,4.1-6.8c5.5-6.2,6.4-17.9,1.3-23.6
				C302.6,348,304.4,344,293.8,338.9L293.8,338.9L293.8,338.9z"/>
			<path class="st37" d="M296.4,356.6c1.7-3.7-2.7-8.5-3.3-9.1c-4.3-4.5-10.4-4.7-13.4-4.8c-2.6-0.1-8.3-0.2-12.6,3.6
				c-2.3,2.1-4.5,5.5-3.5,7c0.6,0.9,2.3,1,5.7,1.1c3.1,0.1,4.2-0.3,5.9,0.5c1.3,0.6,1.6,1.2,2.7,2.2c3,2.6,6.7,3,7.8,3.1
				C288.5,360.4,294.8,360.3,296.4,356.6L296.4,356.6z"/>
		</g>
		<polygon class="st42" points="252.9,398.5 237.4,403.3 238.6,417.6 233.8,505.7 313.6,508.1 314.6,499.9 306.5,470.3 310,411.6 
			287.4,399.7 281.4,387.8 260,386.6 		"/>
		<path class="st37" d="M288,490.8l-54.8,16.7c0,0-33.1,9.5-51,19c-17.9,9.5-15.7,18.2-15.7,18.2l22.6,101.2l21.4,1.2l-2.9-93.1
			l23.2-3.2l3.6,34.1l19.1,4.8l19.1-65.5l0,0c1.4,8.2,9,13.9,17.2,12.8c6.9-0.9,15.3-2.2,23.3-4.2c17.9-4.5,0-36,0-36L288,490.8
			L288,490.8z"/>
		<path class="st37" d="M231.4,541.4c0,0,3.6-28.6,9.5-60.7s27.4-23.8,27.4-23.8l38.1,40.5l-31,20.2L231.4,541.4L231.4,541.4z"/>
		<path id="e-402_00000128447519409110236900000003995896513191977097_" class="st44" d="M263.7,510.6c1.6-1.4,2.8-3.2,3.5-5.2
			l17.1-14.1l-7-7.9l-16.6,15.2c-2,0.6-3.9,1.7-5.4,3.2c-3.9,3.6-5.1,8.6-2.8,11C254.9,515.1,259.9,514.2,263.7,510.6L263.7,510.6z"
			/>
		<path class="st42" d="M277.9,431.8l13.6,26.6l-23.4,30.2l11.8,12.3l29.3-24.7l13.7-12.9c5-4.7,2.4-10.9-0.1-17.3
			c-9.9-25.5-7.5-35-17-37.4C298.1,406.7,277.9,431.8,277.9,431.8L277.9,431.8L277.9,431.8z"/>
		<g>
			<polygon class="st48" points="215.5,481.8 217.7,475.6 259.1,482.7 294.4,464.9 296.1,469.8 257.8,492.5 			"/>
			<polygon class="st38" points="297.9,466.7 258.3,486.7 212.9,480.2 217.3,499.2 255.6,505.9 291.8,488.5 			"/>
		</g>
		<g>
			<polygon class="st48" points="56.9,250.5 59.1,244.3 100.6,251.4 135.8,233.6 137.6,238.5 99.2,261.2 			"/>
			<polygon class="st38" points="139.4,235.3 99.7,255.4 54.4,248.8 58.7,267.9 97,274.6 133.3,257.2 			"/>
		</g>
	</g>
	<g>
		<g>
			<g>
				<path class="st49" d="M356.4,210.6c0,0,1.5-1.5,4.4-4.1"/>
				<path class="st50" d="M369.9,198.6c33.6-27.7,126.4-92.5,242.5-74.9"/>
				<path class="st49" d="M618.4,124.7c2,0.3,3.9,0.7,5.9,1.1"/>
			</g>
		</g>
		<g>
			<g>
				<path class="st49" d="M1122,225c-1.9-0.8-3.7-1.5-5.6-2.3"/>
				<path class="st52" d="M1105.4,218.2c-130.6-52.6-228-74.7-281.5,34.7c-25,51,2,125.2,47.1,143.1c60.4,24,106.5-9.8,133.4-71.8
					c27-62,3.3-135.9-35.8-152.9l-9.5-3c-217.4-52.9-330.8-35.1-400.3-7.5c-58,23-80.5,84.3-75.6,115.9c4.9,32.3,29,70.5,53.3,76.9
					c43.7,11.5,92.6-19.6,119.6-81.6c27-62,17.2-126.1-21.9-143.1c-3.5-1.5-7.1-2.5-10.8-3.3"/>
				<path class="st49" d="M617.5,124.6c-1.9-0.3-3.9-0.6-5.9-1"/>
			</g>
		</g>
	</g>
	<polyline class="st49" points="1098.9,226 1122,225.2 1110.1,204.2 	"/>
</g>
</svg>
